<?xml version="1.0" encoding="UTF-8" standalone="no"?>
<svg
   enable-background="new 0 0 91 91"
   height="91px"
   id="Layer_1"
   version="1.1"
   viewBox="0 0 91 91"
   width="91px"
   xml:space="preserve"
   sodipodi:docname="back.svg"
   inkscape:version="1.1.2 (b8e25be833, 2022-02-05)"
   xmlns:inkscape="http://www.inkscape.org/namespaces/inkscape"
   xmlns:sodipodi="http://sodipodi.sourceforge.net/DTD/sodipodi-0.dtd"
   xmlns="http://www.w3.org/2000/svg"
   xmlns:svg="http://www.w3.org/2000/svg"><defs
     id="defs11" /><sodipodi:namedview
     id="namedview9"
     pagecolor="#ffffff"
     bordercolor="#666666"
     borderopacity="1.0"
     inkscape:pageshadow="2"
     inkscape:pageopacity="0.0"
     inkscape:pagecheckerboard="0"
     showgrid="false"
     inkscape:zoom="9.1318681"
     inkscape:cx="45.445247"
     inkscape:cy="45.554753"
     inkscape:window-width="1920"
     inkscape:window-height="1017"
     inkscape:window-x="-8"
     inkscape:window-y="-8"
     inkscape:window-maximized="1"
     inkscape:current-layer="Layer_1" /><g
     id="g6"><path
       d="M63.383,24.097c-3,1.955-6.102,3.752-9.018,5.831c-1.729,1.23-3.188,2.605-4.622,4.033c0.054-2.56,0.11-5.121,0.154-7.683   c0.034-1.918-2.254-3.313-3.914-2.246c-4.83,3.112-9.864,5.941-14.593,9.202c-2.23,1.539-4.494,3.074-6.625,4.751   c-1.267,0.997-2.391,2.137-3.524,3.259c-3.378-2.051-6.925,2.805-3.332,5.31c9.257,6.456,18.683,12.729,27.762,19.435   c1.299,0.961,3.199-0.074,3.589-1.46c0.587-2.095,0.553-4.597,0.424-7.045c4.439,2.853,8.957,5.569,13.345,8.507   c1.287,0.86,3.247,0.014,3.591-1.462c0.858-3.68,0.167-8.328,0.183-12.063c0.036-8.73,0.254-17.458,0.381-26.188   C67.209,24.427,64.993,23.047,63.383,24.097z M34.239,36.872c3.462-1.89,6.886-3.874,10.282-5.895   c-0.195,6.806-0.141,13.63-0.108,20.434c0.01,2.582,0.03,5.163,0.052,7.747c-7.279-5.242-14.4-10.757-21.339-16.431   C26.729,40.634,30.662,38.825,34.239,36.872z M49.479,49.845c0.032-4.229,0.104-8.457,0.195-12.683   c4.011-2.278,8.199-4.271,12.272-6.46c-0.231,6.898-0.205,13.805-0.163,20.709c0.017,2.563,0.057,5.125,0.105,7.69   c-4.046-2.917-8.159-5.712-11.981-8.943C49.766,50.04,49.622,49.939,49.479,49.845z"
       id="path2" /><path
       d="M89.746,36.776C85.094,15.801,64.732,1.854,43.83,1.483c-1.307-0.024-2.26,0.523-2.861,1.325   C23.925,2.442,8.109,17.011,2.57,32.24c-5.961,16.403-0.173,35.695,13.043,46.894c15.017,12.725,38.883,12.375,55.5,2.748   C86.622,72.898,93.561,53.971,89.746,36.776z M72.676,73.656c-12.799,10.57-35.563,12.858-49.72,3.927   C10.403,69.661,3.083,53.599,5.93,38.949c1.683-8.664,6.468-16.28,12.832-22.298c6.205-5.869,13.546-9.056,21.445-11.722   c-0.139,1.997,1.068,4.11,3.623,4.083c15.858-0.167,31.865,8.746,38.333,23.583C88.13,46.288,84.262,64.088,72.676,73.656z"
       id="path4" /></g><path
     style="fill:#2ad4ff;stroke-width:0.109507"
     d="M 40.845969,88.750223 C 33.714272,88.210351 27.262381,86.358089 21.68231,83.248562 20.210213,82.428227 17.786049,80.796035 16.425993,79.709478 14.9384,78.52103 12.417257,76.068531 11.034212,74.464501 5.1215738,67.60713 1.5115764,59.202196 0.4750536,49.880265 0.26518663,47.992834 0.29594869,43.177696 0.53032165,41.229242 1.1382674,36.175097 2.4762623,31.881621 4.9174154,27.151545 9.9161995,17.465701 18.610567,9.275936 27.985471,5.4223085 31.799532,3.854509 35.332716,3.0593424 39.03911,2.934613 l 1.916365,-0.06449 0.520792,-0.4668008 c 0.753439,-0.6753304 1.267808,-0.8159095 2.975551,-0.8132291 3.591823,0.00564 8.537042,0.7983702 12.66743,2.030625 12.798364,3.8182465 23.420283,12.3793969 28.998739,23.3726629 2.424394,4.77767 3.649682,8.877891 4.352342,14.564381 0.263314,2.130953 0.262695,7.160396 -0.0011,9.306969 -1.232243,10.025396 -5.138736,18.402281 -11.623106,24.924 -3.171326,3.189592 -6.335551,5.43676 -10.623455,7.544561 -5.825316,2.863545 -11.752035,4.53996 -18.616125,5.265707 -1.877982,0.198561 -6.973322,0.286516 -8.76053,0.151224 z m 8.377256,-5.852232 c 8.972261,-0.957229 17.177762,-4.121447 23.147954,-8.926346 1.555019,-1.251503 3.844331,-3.562942 4.989007,-5.037229 C 85.9464,57.875794 87.436384,41.980133 81.004131,30.059567 79.879539,27.975419 78.41029,25.784535 76.891645,23.927196 75.781294,22.569211 72.567769,19.418756 71.195003,18.342359 67.121507,15.148296 62.826858,12.833827 57.983755,11.222565 53.670133,9.7874561 50.044943,9.1592673 44.841687,8.9452498 42.772273,8.8601319 42.686745,8.847412 42.123858,8.5410506 41.061312,7.9627405 40.402168,6.9093851 40.279268,5.5932735 40.216494,4.9210434 40.194878,4.873462 39.981244,4.9372577 39.251665,5.155125 35.118312,6.6961421 33.673285,7.2890216 c -2.332378,0.9569507 -6.413654,3.0271294 -8.302914,4.2115534 -3.036229,1.903487 -5.62042,4.002432 -8.200928,6.661 -6.829786,7.036386 -10.8747998,15.277684 -11.7443716,23.927945 -0.1456048,1.448438 -0.147071,5.13116 -0.00263,6.601946 0.7345305,7.479357 3.5299987,14.426547 8.2777206,20.57147 1.17311,1.518345 4.498485,4.885685 6.009564,6.085406 4.900922,3.891082 10.65577,6.307774 17.423515,7.316833 0.937008,0.139707 1.734755,0.221275 4.315012,0.441204 1.068976,0.09111 6.275754,-0.04844 7.77497,-0.208388 z"
     id="path87" /><path
     style="fill:#2ad4ff;stroke-width:0.109507"
     d="m 46.178493,66.191147 c -0.138771,-0.05568 -1.493915,-1.00578 -3.011432,-2.111343 -3.446808,-2.511123 -8.363968,-5.957308 -16.118926,-11.296928 -8.238532,-5.672583 -9.260835,-6.386773 -9.618976,-6.719907 -1.531855,-1.424891 -1.106098,-3.902408 0.844939,-4.916771 0.729357,-0.3792 1.739863,-0.404096 2.493099,-0.06142 l 0.508472,0.231321 0.477087,-0.493911 c 1.743889,-1.805383 4.072524,-3.650567 8.361564,-6.62561 2.945195,-2.042899 4.672255,-3.154253 10.365587,-6.670194 5.984379,-3.69568 6.021003,-3.716903 6.532725,-3.785539 0.656452,-0.08805 1.501174,0.237719 2.056574,0.793118 0.776239,0.776238 0.795283,0.925723 0.696998,5.470853 -0.04689,2.168232 -0.06688,3.960939 -0.04442,3.983794 0.02246,0.02285 0.597038,-0.488189 1.27685,-1.135654 2.241492,-2.134835 3.715761,-3.195712 9.668032,-6.95707 2.857917,-1.805975 3.231992,-2.011611 3.73833,-2.055031 0.722597,-0.06197 1.273557,0.123991 1.813997,0.612247 0.82933,0.74925 0.875639,0.943619 0.863318,3.623589 -0.006,1.301384 -0.06545,5.027163 -0.132158,8.279509 -0.10569,5.15318 -0.128294,13.603461 -0.06283,23.48917 0.01954,2.950638 -0.0785,4.061235 -0.435002,4.927798 -0.402378,0.978076 -1.607766,1.659127 -2.605272,1.471993 -0.231058,-0.04335 -1.207378,-0.60238 -2.336196,-1.33769 -1.631082,-1.062482 -4.150977,-2.661162 -10.864038,-6.892395 l -0.930806,-0.586685 -0.06651,2.714205 c -0.09046,3.691496 -0.294701,4.623591 -1.189407,5.42801 -0.726565,0.653243 -1.604755,0.892092 -2.281596,0.620544 z M 44.46894,49.360108 c -0.03763,-5.40552 -0.02892,-11.75006 0.01937,-14.098977 0.04829,-2.348917 0.07591,-4.289305 0.06137,-4.311973 -0.01453,-0.02267 -0.952368,0.501517 -2.084083,1.164857 -5.216134,3.057371 -8.181253,4.692595 -12.898816,7.113525 -4.419017,2.267723 -6.528098,3.42605 -6.454622,3.544938 0.08646,0.139892 5.762916,4.680437 8.973274,7.177639 4.416859,3.435686 12.16507,9.224993 12.358334,9.233898 0.05161,0.0024 0.0629,-4.404642 0.02517,-9.823907 z m 17.377249,-0.821299 c -0.02642,-5.857236 -0.0011,-12.275692 0.05623,-14.263237 0.05735,-1.987546 0.09828,-3.622078 0.09097,-3.632295 -0.02264,-0.03163 -9.233969,4.750689 -10.813986,5.61438 l -1.493277,0.816276 -0.06451,0.681446 c -0.03548,0.374794 -0.09214,3.268538 -0.125911,6.430542 l -0.0614,5.749097 2.057214,1.614417 c 1.131467,0.887929 2.549994,1.977064 3.152281,2.4203 0.987402,0.726651 7.211128,5.211624 7.238929,5.216554 0.0063,0.0011 -0.01012,-4.790245 -0.03654,-10.64748 z"
     id="path126" /></svg>
