<?xml version="1.0" encoding="UTF-8" standalone="no"?>
<!-- Created with Inkscape (http://www.inkscape.org/) -->

<svg
   width="204.37529mm"
   height="221.61572mm"
   viewBox="0 0 204.37529 221.61572"
   version="1.1"
   id="svg5"
   inkscape:version="1.1.2 (b8e25be833, 2022-02-05)"
   sodipodi:docname="github.svg"
   inkscape:export-filename="D:\SDS Labs\Portfolio Assignment\github.png"
   inkscape:export-xdpi="96"
   inkscape:export-ydpi="96"
   xmlns:inkscape="http://www.inkscape.org/namespaces/inkscape"
   xmlns:sodipodi="http://sodipodi.sourceforge.net/DTD/sodipodi-0.dtd"
   xmlns="http://www.w3.org/2000/svg"
   xmlns:svg="http://www.w3.org/2000/svg">
  <sodipodi:namedview
     id="namedview7"
     pagecolor="#ffffff"
     bordercolor="#666666"
     borderopacity="1.0"
     inkscape:pageshadow="2"
     inkscape:pageopacity="0.0"
     inkscape:pagecheckerboard="0"
     inkscape:document-units="mm"
     showgrid="false"
     inkscape:zoom="0.52347032"
     inkscape:cx="229.23936"
     inkscape:cy="601.75331"
     inkscape:window-width="1920"
     inkscape:window-height="1017"
     inkscape:window-x="-8"
     inkscape:window-y="-8"
     inkscape:window-maximized="1"
     inkscape:current-layer="layer1" />
  <defs
     id="defs2" />
  <g
     inkscape:label="Layer 1"
     inkscape:groupmode="layer"
     id="layer1"
     transform="translate(-4.6194613,-2.7896426)">
    <path
       style="fill:#000000;stroke-width:0.133054"
       d="m 35.22123,224.1364 c -1.966462,-0.45172 -4.126134,-1.12588 -5.877585,-1.83478 -2.977523,-1.20512 -7.774979,-3.99759 -9.008042,-5.24334 -0.210823,-0.213 -1.015795,-0.93071 -1.788827,-1.5949 -0.77303,-0.66421 -1.998554,-1.83878 -2.723399,-2.61018 -1.24044,-1.3201 -3.090303,-3.55564 -3.090303,-3.73459 0,-0.15827 -1.060793,-1.61673 -1.175887,-1.61673 -0.06432,0 -0.08115,-0.0627 -0.03736,-0.13949 0.0438,-0.0767 -0.0096,-0.1768 -0.119473,-0.22235 -0.109488,-0.0455 -0.166962,-0.13904 -0.127821,-0.20782 0.03914,-0.0687 -0.01833,-0.16228 -0.127822,-0.20783 -0.109477,-0.0455 -0.167207,-0.1386 -0.128368,-0.20687 0.03887,-0.0682 0.01492,-0.12406 -0.05309,-0.12406 -0.314709,0 -2.2243498,-3.7103 -3.2442234,-6.30332 -1.4288604,-3.63285 -2.3051882,-7.01874 -2.8690248,-11.08509 -0.219992,-1.58653 -0.2305435,-5.02716 -0.2305435,-75.16507 0,-70.13792 0.010949,-73.57855 0.2305435,-75.165082 0.8552525,-6.168101 2.6302839,-11.557306 5.4191402,-16.453183 0.379823,-0.666788 0.748,-1.212341 0.818165,-1.212341 0.07021,0 0.0958,-0.05581 0.05693,-0.124031 -0.03886,-0.06822 0.02341,-0.163209 0.138509,-0.211089 0.115094,-0.04788 0.1726,-0.126763 0.127821,-0.175283 -0.04475,-0.04853 0.03421,-0.176021 0.175502,-0.283325 0.141287,-0.10731 0.227491,-0.246649 0.19158,-0.309655 -0.03585,-0.06301 0.0096,-0.145757 0.101269,-0.183882 0.09169,-0.03813 0.433812,-0.496693 0.760386,-1.019028 1.154223,-1.84612 3.633488,-4.566889 6.099083,-6.693205 0.737886,-0.636355 1.496301,-1.318989 1.685351,-1.516963 0.50023,-0.5238518 2.726782,-2.0021308 4.642089,-3.0820424 3.946609,-2.2252212 8.568864,-3.784591 13.158042,-4.4390205 1.042072,-0.1486039 13.767261,-0.1822075 68.997738,-0.1822075 h 67.72 l 1.78883,0.3103497 c 3.31733,0.5755351 6.79714,1.6467965 9.6416,2.968167 2.50211,1.1623426 6.29407,3.5010192 7.2884,4.4951007 0.1757,0.175645 0.98066,0.891914 1.78883,1.591709 0.80817,0.699796 2.06244,1.902799 2.78729,2.673342 1.27531,1.35572 3.09029,3.555029 3.09029,3.744676 0,0.16796 1.05013,1.605074 1.17286,1.605074 0.066,0 0.0842,0.06279 0.0404,0.139524 -0.0438,0.07674 0.01,0.176801 0.11948,0.22235 0.10949,0.04555 0.16696,0.139065 0.12783,0.207828 -0.0392,0.06875 0.0184,0.16228 0.12782,0.20783 0.10948,0.04555 0.1672,0.138634 0.12836,0.20685 -0.0388,0.06822 -0.0136,0.124033 0.0566,0.124033 0.19337,0 1.73843,2.855512 2.53131,4.678281 1.30678,3.004153 2.09642,5.375933 2.82465,8.484266 l 0.47069,2.009021 0.034,76.928886 0.0339,76.92888 -0.3853,1.97712 c -0.62401,3.20229 -1.52567,6.06215 -2.95532,9.37371 -0.72238,1.67328 -2.37425,4.72682 -2.55707,4.72682 -0.0683,0 -0.0903,0.0592 -0.0491,0.13163 0.0412,0.0724 -0.0432,0.2002 -0.18769,0.28407 -0.14449,0.0838 -0.23268,0.20513 -0.19599,0.26953 0.0366,0.0644 -0.0229,0.15436 -0.13234,0.19991 -0.10949,0.0456 -0.16323,0.14558 -0.11947,0.22234 0.0438,0.0767 0.0256,0.13949 -0.0404,0.13949 -0.12822,0 -1.0771,1.31568 -1.19908,1.66263 -0.1075,0.30581 -2.47597,3.11626 -3.49062,4.14205 -0.48206,0.48736 -1.45479,1.38087 -2.16162,1.98557 -0.70686,0.60473 -1.45768,1.26379 -1.66851,1.46455 -1.11792,1.06465 -3.25252,2.46943 -5.84151,3.84427 -2.84493,1.51073 -5.7409,2.58686 -8.9208,3.3149 l -1.53289,0.35096 -70.62481,-0.01 c -67.511276,-0.009 -70.672714,-0.0208 -71.710914,-0.25928 z m 61.553507,-33.12234 c 0.262238,-0.1524 0.62802,-0.27711 0.812841,-0.27711 0.184821,0 0.473157,-0.11515 0.640762,-0.25597 0.16759,-0.14082 0.464358,-0.29827 0.659483,-0.34993 0.195113,-0.0516 0.683857,-0.34169 1.08607,-0.64444 0.402227,-0.30275 0.783997,-0.55057 0.848367,-0.55066 0.1359,0 0.18745,-0.0495 1.54687,-1.48276 1.16127,-1.22425 2.1054,-2.423 2.1054,-2.67324 0,-0.0928 0.14375,-0.35384 0.31943,-0.58026 0.17569,-0.2264 0.31944,-0.53731 0.31944,-0.69091 0,-0.15358 0.11496,-0.43778 0.25555,-0.63154 0.17381,-0.23962 0.25554,-0.56208 0.25554,-1.00831 0,-0.36083 0.11496,-1.04637 0.25555,-1.52345 0.18492,-0.62766 0.25623,-1.25496 0.25802,-2.26955 0.001,-0.77115 0.0979,-2.0256 0.21448,-2.78764 0.18288,-1.1953 0.222,-3.19272 0.28501,-14.54809 l 0.0729,-13.16254 0.92165,-0.0407 0.92165,-0.0405 0.0367,15.48926 c 0.0301,12.71714 0.0679,15.56368 0.21082,15.90496 0.0958,0.22861 0.2208,0.89382 0.27779,1.47827 0.0569,0.58441 0.18975,1.20791 0.29503,1.38552 0.10524,0.17762 0.23064,0.61532 0.27859,0.97268 0.0486,0.36222 0.19437,0.75493 0.32939,0.88744 0.13316,0.13074 0.24221,0.38448 0.24221,0.56394 0,0.17944 0.11495,0.43303 0.25554,0.56353 0.14055,0.13044 0.25555,0.28262 0.25555,0.33808 0,0.0555 0.17136,0.37614 0.38079,0.71266 0.42093,0.6763 1.14208,1.42535 1.88252,1.95532 0.2661,0.19046 0.73022,0.5356 1.03138,0.76697 0.30116,0.23139 0.60079,0.42069 0.66584,0.42069 0.065,0 0.22112,0.11693 0.34685,0.25991 0.12576,0.1429 0.37232,0.30741 0.54801,0.36545 0.17568,0.058 0.45656,0.22165 0.62415,0.36357 0.1676,0.14188 0.42794,0.25805 0.57854,0.25805 0.15059,0 0.37226,0.12465 0.4926,0.27709 0.1203,0.15242 0.3775,0.27753 0.57143,0.27804 0.19396,0 0.52514,0.12479 0.73596,0.27617 0.31728,0.22786 0.60085,0.27545 1.64596,0.27621 l 1.26266,0.001 0.43035,-0.49479 c 0.39453,-0.45362 0.43035,-0.56726 0.43035,-1.36531 0,-0.73649 -0.0492,-0.92803 -0.31943,-1.24424 -0.1757,-0.20557 -0.31943,-0.43705 -0.31943,-0.51441 0,-0.15321 -0.52495,-0.93795 -1.00373,-1.50048 -0.41101,-0.4829 -1.08726,-1.6087 -1.41921,-2.36264 -0.15098,-0.34291 -0.38632,-0.85406 -0.52296,-1.13587 -0.13671,-0.28181 -0.24845,-0.73584 -0.24845,-1.00894 0,-0.27312 -0.10057,-0.72839 -0.2236,-1.01172 -0.20812,-0.47946 -0.22601,-1.58864 -0.25824,-16.02322 -0.0203,-9.08801 0.0136,-15.55984 0.0806,-15.6331 0.15394,-0.1669 1.16787,0.39888 1.16787,0.6517 0,0.10685 0.14374,0.37962 0.31943,0.60604 0.20932,0.26976 0.31943,0.58102 0.31943,0.90303 0,0.27029 0.056,0.5289 0.12426,0.57471 0.29473,0.19752 0.38471,1.40077 0.4511,6.03175 0.0387,2.70395 0.1244,6.28795 0.1902,7.96445 0.0658,1.67649 0.15773,5.44861 0.20416,8.38246 0.0771,4.87304 0.10509,5.37165 0.32398,5.76631 0.13179,0.23761 0.23954,0.55281 0.23954,0.70048 0,0.14766 0.14375,0.47975 0.31943,0.73797 0.1757,0.25822 0.31944,0.52859 0.31944,0.60083 0,0.1543 1.07151,1.54239 1.53327,1.9863 0.1757,0.16888 0.48596,0.46641 0.68947,0.66117 0.20353,0.19475 0.43899,0.35408 0.52325,0.35408 0.0843,0 0.25726,0.12466 0.38446,0.2771 0.12714,0.15241 0.31391,0.27711 0.41491,0.27711 0.10102,0 0.32986,0.12466 0.50853,0.2771 0.17869,0.15242 0.4531,0.27711 0.60984,0.27711 0.15674,0 0.4221,0.1168 0.58971,0.25957 0.16759,0.14276 0.61536,0.30579 0.99505,0.36228 0.37967,0.0566 0.89715,0.20331 1.14994,0.32621 0.68538,0.33322 5.62325,0.33617 5.97224,0.003 0.13042,-0.12435 0.36241,-0.26738 0.51543,-0.3179 0.15302,-0.0505 0.39265,-0.30211 0.53251,-0.55915 l 0.25429,-0.46735 -0.27694,-0.40106 c -0.374,-0.54158 -1.73842,-1.83867 -1.93411,-1.83867 -0.17705,0 -2.92856,-2.52439 -3.24925,-2.98109 -0.66057,-0.94062 -0.84834,-1.24639 -1.13671,-1.85103 l -0.29329,-0.61488 -0.0327,-13.79897 c -0.0298,-12.58946 -0.0518,-13.86574 -0.25199,-14.56099 -0.12056,-0.41912 -0.25385,-1.38552 -0.29603,-2.14757 -0.0466,-0.84195 -0.15007,-1.51269 -0.26371,-1.70963 -0.10289,-0.17824 -0.22059,-0.67691 -0.26163,-1.10814 -0.0411,-0.43123 -0.1799,-0.97122 -0.30855,-1.20001 -0.12865,-0.22875 -0.23415,-0.56197 -0.2344,-0.74046 -2.7e-4,-0.17848 -0.11551,-0.48306 -0.25603,-0.6768 -0.14055,-0.19377 -0.25556,-0.46016 -0.25556,-0.59202 0,-0.13194 -0.11495,-0.39826 -0.25554,-0.59203 -0.14055,-0.19375 -0.25554,-0.41467 -0.25554,-0.49092 0,-0.0762 -0.25873,-0.48307 -0.57498,-0.90403 -0.31625,-0.42096 -0.57499,-0.80639 -0.57499,-0.85649 0,-0.11842 -1.63022,-1.85429 -2.07909,-2.21372 -0.19034,-0.15242 -0.49333,-0.41739 -0.67335,-0.58885 -0.18,-0.17146 -0.38182,-0.31174 -0.44849,-0.31174 -0.0667,-5.3e-4 -0.1211,-0.0629 -0.1211,-0.13906 0,-0.0763 0.277,-0.1386 0.61556,-0.1386 0.33856,0 1.0429,-0.12317 1.56523,-0.27384 0.53617,-0.15462 1.36869,-0.27526 1.91205,-0.2771 0.52933,-0.001 1.27679,-0.0999 1.66107,-0.218 0.38425,-0.11813 1.18738,-0.26833 1.78472,-0.33385 0.59735,-0.0656 1.28732,-0.21141 1.53329,-0.32422 0.24596,-0.11279 0.86319,-0.24937 1.3716,-0.30349 0.50841,-0.0541 1.13867,-0.21685 1.40057,-0.36164 0.26191,-0.14485 0.723,-0.26326 1.02463,-0.26326 0.3043,0 0.76065,-0.12332 1.02522,-0.27711 0.26224,-0.1524 0.6668,-0.27711 0.89905,-0.27711 0.23223,0 0.64765,-0.12465 0.92315,-0.2771 0.27551,-0.1524 0.65454,-0.27711 0.84229,-0.27711 0.18776,0 0.52067,-0.11813 0.73981,-0.26245 0.21912,-0.1444 0.63944,-0.3051 0.93407,-0.35722 0.29463,-0.0521 0.60227,-0.18175 0.68365,-0.28808 0.0814,-0.10641 0.3578,-0.23406 0.61429,-0.28384 0.25647,-0.0497 0.55255,-0.17126 0.65796,-0.26998 0.10542,-0.0987 0.36415,-0.22501 0.57498,-0.28067 0.21084,-0.0557 0.52046,-0.21638 0.68806,-0.35719 0.16758,-0.14083 0.43366,-0.25597 0.59126,-0.25597 0.15762,0 0.3609,-0.0971 0.45175,-0.21583 0.0909,-0.11872 0.34226,-0.3036 0.55868,-0.41086 0.21643,-0.10729 0.6235,-0.35265 0.90459,-0.54534 0.28111,-0.19267 0.65484,-0.42621 0.83054,-0.51898 0.27473,-0.14514 0.66814,-0.44317 1.22583,-0.92884 0.0769,-0.0669 0.30688,-0.21652 0.5111,-0.33239 0.20423,-0.1159 0.55524,-0.40734 0.78004,-0.64772 0.2248,-0.24039 0.62727,-0.62489 0.89442,-0.85445 0.98278,-0.84452 1.93286,-1.89874 3.16466,-3.51152 0.3496,-0.4577 0.73792,-0.95306 0.86299,-1.10078 0.12508,-0.14766 0.22736,-0.31643 0.22736,-0.37487 0,-0.13282 0.61667,-1.12598 0.75998,-1.22398 0.0582,-0.0397 0.20151,-0.29053 0.31859,-0.55724 0.27471,-0.6258 0.64159,-1.335 0.8055,-1.55708 0.071,-0.0962 0.17162,-0.32506 0.22365,-0.50869 0.0521,-0.18361 0.31774,-0.68242 0.59045,-1.10842 0.27271,-0.42602 0.49591,-0.90099 0.49601,-1.05549 9e-5,-0.15451 0.0954,-0.42829 0.21169,-0.60839 0.11633,-0.18011 0.26021,-0.61007 0.31973,-0.95549 0.0595,-0.34542 0.18658,-0.72631 0.28235,-0.84642 0.0959,-0.12021 0.20969,-0.51563 0.25314,-0.87891 0.0434,-0.3633 0.16506,-0.84113 0.27033,-1.06186 0.10519,-0.22075 0.22601,-0.76522 0.26827,-1.20996 0.0423,-0.44473 0.18712,-1.10074 0.32184,-1.45778 0.13563,-0.35924 0.245,-0.97806 0.24504,-1.38553 3e-5,-0.40501 0.1151,-1.06436 0.25555,-1.46524 0.17081,-0.48736 0.25548,-1.06438 0.25548,-1.7413 0,-0.56866 0.11071,-1.46374 0.25255,-2.04217 0.1782,-0.726731 0.25481,-1.498685 0.26035,-2.623137 0.004,-0.876358 0.0841,-2.756842 0.17703,-4.17886 0.14061,-2.148285 0.1405,-2.968293 -0.001,-4.849348 -0.0934,-1.245132 -0.17174,-2.764831 -0.17402,-3.377108 -0.002,-0.748065 -0.088,-1.371841 -0.25971,-1.901644 -0.14239,-0.43934 -0.25554,-1.143588 -0.25554,-1.590598 0,-0.537495 -0.0843,-0.972807 -0.25556,-1.319231 -0.14054,-0.284362 -0.25554,-0.769115 -0.25554,-1.077234 0,-0.308142 -0.11496,-0.804669 -0.25554,-1.103413 -0.14055,-0.298755 -0.25736,-0.685948 -0.25955,-0.860447 -0.002,-0.174488 -0.14542,-0.629003 -0.31826,-1.010034 -0.17285,-0.381009 -0.31479,-0.807617 -0.31545,-0.948016 0,-0.140387 -0.11619,-0.413767 -0.25671,-0.607534 -0.14055,-0.193745 -0.25554,-0.491334 -0.25554,-0.661288 0,-0.169966 -0.11496,-0.467533 -0.25556,-0.6613 -0.14054,-0.193756 -0.25554,-0.443147 -0.25554,-0.554209 0,-0.111007 -0.11496,-0.360465 -0.25554,-0.55421 -0.14056,-0.193756 -0.25556,-0.443159 -0.25556,-0.554221 0,-0.110996 -0.11496,-0.360453 -0.25554,-0.554209 -0.14055,-0.193767 -0.25554,-0.415605 -0.25554,-0.492995 0,-0.07747 -0.12933,-0.31744 -0.28749,-0.533446 -0.37101,-0.506827 -0.55929,-0.839275 -0.79017,-1.39507 -0.10288,-0.247664 -0.23778,-0.450311 -0.29982,-0.450311 -0.0619,0 -0.30614,-0.327321 -0.54244,-0.727388 -0.52942,-0.896221 -1.49705,-2.212943 -1.73601,-2.362288 -0.0974,-0.06096 -0.17729,-0.180408 -0.17729,-0.26549 0,-0.08506 -0.0853,-0.25343 -0.18954,-0.374131 -0.10432,-0.120647 -0.48427,-0.614588 -0.84449,-1.097537 l -0.65494,-0.878086 0.0908,-1.061653 c 0.0499,-0.58392 0.1724,-1.311067 0.27229,-1.615874 0.19164,-0.584811 0.49682,-5.483952 0.48766,-7.828259 -0.01,-2.437422 -0.28003,-5.99934 -0.48962,-6.447571 -0.10817,-0.231279 -0.23495,-0.792421 -0.28182,-1.24698 -0.0468,-0.454559 -0.16868,-0.93074 -0.27072,-1.058176 -0.10211,-0.127447 -0.21798,-0.501539 -0.25766,-0.831321 -0.0397,-0.329783 -0.17854,-0.7483 -0.30861,-0.930035 -0.13001,-0.181737 -0.2375,-0.431132 -0.23879,-0.554212 -0.002,-0.309923 -0.67367,-1.35372 -1.10544,-1.721037 -0.32653,-0.277797 -0.50032,-0.30374 -2.02051,-0.30165 -1.22525,0.0017 -1.79781,0.06084 -2.17433,0.224656 -0.2811,0.122296 -0.83636,0.265317 -1.23389,0.317815 -0.39755,0.05249 -0.94155,0.216383 -1.20892,0.364195 -0.26736,0.147805 -0.65177,0.268747 -0.85422,0.268747 -0.20246,0 -0.51429,0.124701 -0.69297,0.277107 -0.17869,0.152408 -0.5106,0.277106 -0.73762,0.277106 -0.22702,0 -0.55893,0.124701 -0.73762,0.277107 -0.17867,0.152408 -0.46616,0.277106 -0.63888,0.277106 -0.17267,0 -0.46017,0.124699 -0.63885,0.277106 -0.17868,0.152408 -0.43742,0.277107 -0.57499,0.277107 -0.13754,0 -0.40071,0.128454 -0.58478,0.285468 -0.18406,0.157006 -0.53434,0.320603 -0.77839,0.363547 -0.24404,0.04295 -0.54134,0.195053 -0.66066,0.338021 -0.11934,0.142964 -0.32834,0.259946 -0.46449,0.259946 -0.13616,0 -0.39371,0.124696 -0.5724,0.2771 -0.17869,0.152414 -0.42872,0.27711 -0.55564,0.27711 -0.12686,0 -0.26925,0.06756 -0.31628,0.150016 -0.0471,0.08253 -0.32355,0.268769 -0.61447,0.41391 -0.29094,0.145152 -0.61521,0.323789 -0.72062,0.396997 -0.10542,0.07318 -0.36415,0.226812 -0.57498,0.341351 -0.21083,0.11454 -0.52707,0.286761 -0.70277,0.382704 -0.17567,0.09595 -0.45655,0.286045 -0.62415,0.422438 -0.1676,0.136393 -0.40993,0.247983 -0.53854,0.247983 -0.12864,0 -0.29535,0.124707 -0.37058,0.27711 -0.0786,0.159215 -0.26754,0.2771 -0.44416,0.2771 -0.16907,0 -0.34104,0.05909 -0.38217,0.131188 -0.10707,0.187748 -1.14749,0.934294 -1.44476,1.036597 -0.13786,0.04743 -0.35342,0.209381 -0.479,0.359848 -0.28598,0.342672 -1.40898,0.36644 -2.16919,0.04589 -0.28111,-0.118522 -0.99983,-0.293561 -1.59717,-0.388975 -0.59735,-0.0954 -1.24341,-0.24323 -1.43571,-0.328477 -0.19229,-0.08528 -1.11226,-0.214003 -2.04436,-0.2861 -0.93213,-0.07208 -1.86726,-0.206774 -2.07808,-0.299261 -0.46399,-0.203539 -6.5232,-0.469799 -10.73298,-0.471648 -4.23358,-0.0022 -10.523904,0.271003 -10.988535,0.476633 -0.210823,0.09331 -1.077133,0.22406 -1.925133,0.290546 -0.847985,0.06646 -1.794574,0.21759 -2.103507,0.335794 -0.308947,0.118203 -0.995089,0.253925 -1.524767,0.301627 -0.529678,0.04765 -1.087959,0.174477 -1.240632,0.281742 -0.152687,0.107288 -0.612556,0.232512 -1.021941,0.278332 -0.409383,0.04578 -0.916945,0.197454 -1.127908,0.336961 -0.210974,0.139518 -0.563412,0.253892 -0.783199,0.254178 -0.2198,2.75e-4 -0.471201,0.09408 -0.55869,0.208347 -0.08745,0.114319 -0.220116,0.20783 -0.294742,0.20783 -0.219746,0 -1.238538,-0.568757 -1.238538,-0.691439 0,-0.122143 -0.745565,-0.648403 -1.309676,-0.924435 -0.193264,-0.09452 -0.351384,-0.233094 -0.351384,-0.307844 0,-0.07472 -0.120978,-0.177525 -0.268726,-0.228385 -0.310357,-0.106847 -1.107173,-0.653112 -1.40305,-0.961936 -0.110714,-0.116178 -0.29533,-0.21123 -0.409671,-0.21123 -0.114409,0 -0.310766,-0.119645 -0.436494,-0.265864 -0.125768,-0.146242 -0.391346,-0.310122 -0.590276,-0.364217 -0.198931,-0.05414 -0.389965,-0.178219 -0.424506,-0.275845 -0.03449,-0.0976 -0.212233,-0.218163 -0.394864,-0.267867 -0.182618,-0.04974 -0.473705,-0.211197 -0.646852,-0.35888 -0.173147,-0.147694 -0.36986,-0.268516 -0.437138,-0.268516 -0.06733,0 -0.26852,-0.124707 -0.44721,-0.277111 -0.178675,-0.152414 -0.424355,-0.27711 -0.545963,-0.27711 -0.121663,0 -0.367274,-0.124696 -0.54595,-0.277099 -0.17869,-0.152415 -0.408672,-0.277111 -0.511094,-0.277111 -0.102369,0 -0.323343,-0.115023 -0.490948,-0.255618 -0.16759,-0.140593 -0.496258,-0.295917 -0.730346,-0.345167 -0.234101,-0.04925 -0.572472,-0.214793 -0.751927,-0.367871 -0.17947,-0.153078 -0.447923,-0.279709 -0.596559,-0.281404 -0.148651,-0.0016 -0.41401,-0.125011 -0.589702,-0.274024 -0.175692,-0.14902 -0.482861,-0.272331 -0.682598,-0.274025 -0.199738,-0.0017 -0.509369,-0.127787 -0.688044,-0.280187 -0.184206,-0.157123 -0.518347,-0.277107 -0.771718,-0.277107 -0.245761,0 -0.626119,-0.116805 -0.845234,-0.259577 -0.219117,-0.14276 -0.722546,-0.293408 -1.118724,-0.334762 -0.396177,-0.04136 -0.893927,-0.172534 -1.106105,-0.291516 -0.442255,-0.247988 -3.651306,-0.564202 -4.73594,-0.466668 -0.609066,0.05478 -0.735273,0.123097 -1.114261,0.603231 -0.235073,0.297804 -0.429556,0.692425 -0.432197,0.876935 -0.0028,0.18451 -0.09812,0.447246 -0.212096,0.583858 -0.113999,0.136616 -0.257886,0.542035 -0.31973,0.900939 -0.06185,0.358908 -0.198534,0.75575 -0.303788,0.881865 -0.105241,0.126104 -0.191376,0.474707 -0.191376,0.77465 0,0.299954 -0.107156,0.762656 -0.238139,1.028245 -0.130968,0.26559 -0.277936,0.942371 -0.326587,1.503964 -0.04858,0.561594 -0.185847,1.278605 -0.304896,1.59336 -0.189829,0.501897 -0.216448,1.194293 -0.216448,5.629467 0,4.371637 0.02847,5.132323 0.209742,5.61141 0.115368,0.304807 0.251605,1.038864 0.302774,1.631224 0.05118,0.592349 0.201162,1.306973 0.333294,1.588022 0.371941,0.791068 0.32474,1.89568 -0.110714,2.592533 -0.19306,0.308911 -0.386106,0.592833 -0.428968,0.630928 -0.18014,0.160096 -1.392169,1.796667 -1.392169,1.879802 0,0.04985 -0.215613,0.379996 -0.479153,0.733484 -0.615663,0.82584 -1.054127,1.504955 -1.054127,1.632688 0,0.05535 -0.123032,0.242569 -0.273324,0.416078 -0.294236,0.339623 -0.50551,0.702134 -0.801948,1.376044 -0.103184,0.234679 -0.277266,0.5073 -0.386749,0.605807 -0.109488,0.09848 -0.19904,0.284086 -0.19904,0.412359 0,0.128217 -0.143737,0.444501 -0.319429,0.702717 -0.175693,0.258228 -0.319443,0.556653 -0.319443,0.663192 0,0.106518 -0.114957,0.352223 -0.255547,0.545979 -0.140549,0.193756 -0.255916,0.484159 -0.256381,0.645344 -5.07e-4,0.161184 -0.115094,0.480109 -0.254712,0.708714 -0.139619,0.228617 -0.254234,0.595354 -0.254698,0.814969 -5.21e-4,0.219615 -0.108531,0.593713 -0.240001,0.83132 -0.131516,0.237617 -0.273433,0.767233 -0.315323,1.17694 -0.04188,0.409707 -0.155275,0.877327 -0.251948,1.03915 -0.09676,0.161823 -0.211631,0.807254 -0.255451,1.434299 -0.04379,0.627033 -0.18218,1.531099 -0.307483,2.009019 -0.201407,0.768257 -0.227806,1.511095 -0.227806,6.411072 0,4.748343 0.03175,5.696216 0.221183,6.618021 0.121662,0.591744 0.257531,1.745191 0.301967,2.563229 0.04626,0.852381 0.183699,1.825573 0.321852,2.279633 0.132611,0.43578 0.241067,1.09923 0.241067,1.47432 0,0.38355 0.110578,0.94632 0.252741,1.286 0.139017,0.33218 0.254001,0.84027 0.255548,1.12906 0.0013,0.28882 0.11783,0.76952 0.258352,1.06827 0.140562,0.29875 0.25593,0.74831 0.256395,0.999 5.06e-4,0.2507 0.115094,0.64285 0.254698,0.87148 0.139631,0.22861 0.254246,0.58708 0.254712,0.7966 5.06e-4,0.20952 0.138372,0.67714 0.306469,1.03916 0.168098,0.362 0.42099,0.93876 0.561962,1.28168 0.140986,0.34292 0.405935,0.96731 0.588785,1.38751 0.18285,0.42023 0.332459,0.81566 0.332459,0.87875 0,0.0631 0.114956,0.27325 0.255546,0.46699 0.140549,0.19376 0.255547,0.43805 0.255547,0.54284 0,0.10476 0.188187,0.4861 0.418196,0.84729 0.229997,0.36119 0.488691,0.81258 0.574868,1.00309 0.08621,0.1905 0.354149,0.62695 0.595503,0.96986 0.241369,0.34292 0.442654,0.67036 0.447321,0.72763 0.03202,0.39249 3.622321,4.72166 4.671796,5.63319 0.123579,0.10728 0.705958,0.62174 1.294114,1.14306 0.588142,0.52133 1.095732,0.94787 1.127961,0.94787 0.09074,0 1.01429,0.6955 1.089341,0.82032 0.03668,0.061 0.239164,0.21558 0.449987,0.34352 0.210837,0.12792 0.613323,0.38285 0.89442,0.56643 0.281098,0.18358 0.647235,0.40057 0.813622,0.48222 0.166386,0.0816 0.447264,0.27191 0.624161,0.42279 0.176897,0.15089 0.419963,0.27434 0.540134,0.27434 0.120158,0 0.322591,0.12465 0.449783,0.2771 0.127136,0.1524 0.357187,0.27711 0.511093,0.27711 0.153906,0 0.383902,0.12465 0.511093,0.2771 0.127138,0.15241 0.358351,0.27711 0.513666,0.27711 0.15533,0 0.419525,0.1156 0.587129,0.25704 0.167591,0.14142 0.514556,0.29887 0.771033,0.35004 0.256464,0.0512 0.535358,0.18325 0.619755,0.29352 0.08443,0.11026 0.363292,0.2409 0.619769,0.2903 0.256477,0.0494 0.645592,0.20691 0.864709,0.35005 0.21913,0.1432 0.56411,0.26066 0.766653,0.26115 0.20253,5.6e-4 0.540722,0.1248 0.751559,0.2762 0.210823,0.15139 0.584556,0.2761 0.830523,0.2771 0.245967,9.7e-4 0.6197,0.12569 0.830523,0.27711 0.220321,0.15822 0.600677,0.27603 0.89442,0.27704 0.281097,9.7e-4 0.683583,0.10399 0.89442,0.22894 0.210823,0.12495 0.814552,0.30584 1.341617,0.40197 0.527063,0.0962 1.188298,0.27136 1.469395,0.38938 0.281111,0.11798 0.798581,0.21936 1.149967,0.2252 0.351372,0.005 0.955101,0.13118 1.341616,0.27866 0.437849,0.16701 1.063996,0.27206 1.66106,0.27867 0.529571,0.005 1.18696,0.10564 1.469399,0.22307 0.281111,0.11678 1.101753,0.24704 1.823669,0.28931 0.721916,0.0423 1.339003,0.12332 1.371327,0.17996 0.0323,0.0567 -0.157039,0.26526 -0.420783,0.46345 -0.662029,0.49749 -1.941979,1.97872 -2.505871,2.89994 -0.257995,0.42147 -0.55661,0.84507 -0.663589,0.94136 -0.107024,0.0963 -0.276266,0.36704 -0.37621,0.60172 -0.184506,0.43327 -0.326984,0.7012 -0.708698,1.33276 -0.11701,0.19351 -0.255041,0.56761 -0.30684,0.83132 -0.05173,0.2637 -0.178279,0.58299 -0.281069,0.70955 -0.102776,0.12659 -0.234937,0.56299 -0.293634,0.96988 -0.225753,1.565 -0.796993,2.61023 -1.426533,2.61023 -0.143122,0 -0.406415,0.12466 -0.58509,0.2771 -0.17869,0.15243 -0.506208,0.27711 -0.727842,0.27711 -0.221621,0 -0.628514,0.12466 -0.904192,0.27711 -0.30833,0.17045 -0.753515,0.27712 -1.156672,0.27712 -0.360486,0 -0.937693,0.10057 -1.282673,0.22346 -0.435017,0.15499 -1.296168,0.24457 -2.810138,0.29233 -1.936354,0.061 -2.300371,0.0358 -3.222899,-0.22348 -0.571994,-0.16076 -1.343369,-0.29255 -1.714187,-0.29283 -0.448196,0 -0.814429,-0.0932 -1.092543,-0.2771 -0.230092,-0.15214 -0.609299,-0.27661 -0.842676,-0.27661 -0.262034,0 -0.512749,-0.10596 -0.655582,-0.27711 -0.127138,-0.1524 -0.35905,-0.2771 -0.515241,-0.2771 -0.156204,0 -0.358529,-0.0974 -0.449618,-0.2164 -0.09114,-0.119 -0.457502,-0.42767 -0.814237,-0.68589 -0.682996,-0.49438 -1.649688,-1.47666 -2.335407,-2.37313 -0.225,-0.29412 -0.765448,-1.0024 -1.201012,-1.57393 -0.435551,-0.57153 -0.826445,-1.07033 -0.868651,-1.10842 -0.04216,-0.0382 -0.272339,-0.38103 -0.511394,-0.76205 -0.239069,-0.38101 -0.501473,-0.75511 -0.583133,-0.83131 -0.0817,-0.0763 -0.567956,-0.69971 -1.080664,-1.38553 -0.512722,-0.68584 -1.205064,-1.56504 -1.538548,-1.95377 -0.964558,-1.12434 -3.442045,-3.24198 -3.792869,-3.24198 -0.07322,0 -0.237126,-0.12465 -0.364317,-0.27711 -0.127138,-0.15241 -0.380481,-0.27752 -0.562838,-0.27803 -0.182371,-4.8e-4 -0.504073,-0.1248 -0.714896,-0.27618 -0.220361,-0.15825 -0.600595,-0.276 -0.894419,-0.277 -0.281097,-9.7e-4 -0.856088,-0.0657 -1.277734,-0.1441 -1.034503,-0.19207 -3.721321,0.0856 -4.088758,0.42253 -0.14055,0.12881 -0.356163,0.27283 -0.479153,0.3199 -0.178402,0.0682 -0.223605,0.24904 -0.223605,0.89424 0,0.78933 0.0152,0.82452 0.637848,1.47153 0.591645,0.61484 1.458584,1.33088 1.611367,1.33088 0.05583,0 0.75067,0.56161 1.285726,1.03915 0.0854,0.0761 0.368163,0.29442 0.628404,0.48494 0.720671,0.52756 3.126981,3.17145 3.662543,4.02415 0.261131,0.41576 0.648316,1.0231 0.860412,1.34969 0.212095,0.32657 0.385626,0.64179 0.385626,0.70047 0,0.0588 0.14375,0.31801 0.319443,0.57624 0.175679,0.25822 0.31943,0.57242 0.31943,0.6982 0,0.12585 0.114957,0.34157 0.255546,0.47949 0.14055,0.13787 0.255548,0.38859 0.255548,0.557 0,0.16844 0.114956,0.46476 0.255546,0.65853 0.140549,0.19375 0.255547,0.47431 0.255547,0.62348 0,0.14916 0.106198,0.4199 0.236071,0.60162 0.129874,0.18174 0.276117,0.50815 0.325083,0.72537 0.04899,0.2172 0.189405,0.56011 0.312094,0.76204 0.352644,0.58034 0.515664,0.89075 0.702222,1.33699 0.09552,0.2286 0.268932,0.50123 0.38523,0.60581 0.116325,0.10464 0.211453,0.28263 0.211453,0.39565 0,0.19944 0.122757,0.38529 1.122951,1.70032 1.22321,1.60825 4.018937,4.29516 4.469089,4.29516 0.05953,0 0.302967,0.15586 0.541091,0.34638 0.238139,0.19051 0.513351,0.34638 0.611599,0.34638 0.09826,0 0.324821,0.12465 0.503498,0.2771 0.178689,0.1524 0.446498,0.27753 0.595135,0.27802 0.14865,0 0.442762,0.12481 0.653584,0.27619 0.210823,0.15141 0.544596,0.2757 0.741706,0.2762 0.19711,0 0.599596,0.11738 0.89442,0.25982 0.294809,0.14246 0.939663,0.29735 1.432993,0.34437 0.493344,0.0471 1.212071,0.19213 1.597177,0.32247 1.009103,0.34153 6.723546,0.32411 8.303396,-0.0254 0.591892,-0.13089 1.566987,-0.24677 2.166871,-0.25749 l 1.090681,-0.0195 0.03285,8.71757 c 0.03147,8.34044 0.0223,8.74202 -0.211782,9.28304 -0.134526,0.31103 -0.286844,0.72016 -0.338357,0.90921 -0.25697,0.9428 -1.47929,2.24764 -3.896232,4.15927 -1.083566,0.85702 -2.40033,2.28093 -2.497482,2.70072 -0.105791,0.45735 0.03531,1.04021 0.25192,1.04021 0.09457,0 0.336577,0.14024 0.537752,0.31174 0.353562,0.30136 0.45746,0.31175 3.115744,0.31175 2.344219,0 2.797109,-0.0338 3.069406,-0.22917 0.175693,-0.12598 0.578179,-0.27289 0.89442,-0.32638 0.316242,-0.0535 0.754269,-0.21535 0.973385,-0.35968 0.219119,-0.1444 0.497547,-0.26247 0.618717,-0.26247 0.121115,0 0.366508,-0.12465 0.545183,-0.27712 0.17869,-0.1524 0.423207,-0.2771 0.543391,-0.2771 0.120158,0 0.322578,-0.12466 0.449783,-0.27711 0.127138,-0.1524 0.314668,-0.27711 0.416624,-0.27711 0.101951,0 0.366151,-0.16011 0.587114,-0.3558 0.220978,-0.19569 0.626585,-0.5542 0.901373,-0.79668 1.049516,-0.92614 2.374997,-2.70811 2.375777,-3.19396 2.6e-4,-0.16229 0.113863,-0.49668 0.252372,-0.74307 0.245228,-0.43612 0.252824,-0.78967 0.287009,-13.37036 0.03189,-11.71033 0.05502,-12.96789 0.247499,-13.40734 0.116737,-0.2667 0.249745,-0.72434 0.295426,-1.01696 0.04571,-0.2926 0.250716,-0.85374 0.455613,-1.24698 0.204898,-0.39322 0.459938,-0.88306 0.566752,-1.0885 0.189254,-0.36401 0.82821,-1.17639 0.839103,-1.06685 0.0028,0.0301 0.03325,2.76704 0.06733,6.08194 0.0791,7.69542 -0.128916,24.53744 -0.312273,25.28593 -0.07473,0.30482 -0.173543,1.20887 -0.219718,2.00902 -0.06076,1.05154 -0.150361,1.57455 -0.323495,1.88682 -0.13179,0.23762 -0.239534,0.58645 -0.239534,0.7752 0,0.18877 -0.114957,0.45605 -0.255547,0.59399 -0.140548,0.13786 -0.255546,0.36908 -0.255546,0.51369 0,0.14455 -0.488171,0.8052 -1.084811,1.46796 -0.596655,0.66279 -1.212399,1.46541 -1.368316,1.7836 -0.258887,0.52835 -0.267303,0.61167 -0.09703,0.96039 0.102501,0.21003 0.382095,0.58877 0.62126,0.84163 l 0.434867,0.45978 h 1.322484 c 1.078377,0 1.410494,-0.0512 1.799281,-0.27711 z"
       id="path75" />
    <path
       style="fill:#80e5ff;stroke-width:0.720302"
       d="M 31.845687,222.63136 C 20.133174,218.52515 10.891838,208.80434 6.8066551,196.29321 L 5.2147047,191.41776 V 113.78554 36.153325 L 6.8066551,31.277872 C 9.984994,21.544012 17.477253,12.123187 25.577265,7.6755664 33.217029,3.48066 30.446996,3.6395954 105.00291,3.1183599 172.80572,2.6443377 174.08385,2.6621716 179.28,4.1546599 193.2439,8.165497 202.84833,17.690403 207.34227,31.984576 l 1.54644,4.91882 0.0178,76.162014 c 0.0153,65.07597 -0.13206,76.78617 -1.01216,80.45015 -3.15529,13.13594 -12.56633,24.1852 -24.48542,28.74768 l -4.5741,1.75091 -71.59237,-0.0245 c -66.691535,-0.0228 -71.852799,-0.11579 -75.396793,-1.35825 z m 67.492346,-32.36508 c 1.599417,-0.83959 3.753137,-2.84889 4.786047,-4.46513 1.59952,-2.50282 1.96552,-4.08399 2.46807,-10.66212 0.32452,-4.24792 0.65138,-12.28017 0.72635,-17.84944 0.12322,-9.15422 0.19479,-8.4704 0.74577,7.12566 0.71324,20.18934 0.96418,21.10517 6.84086,24.96647 6.55922,4.30977 9.58937,1.95931 5.69463,-4.41727 l -1.944,-3.18275 -0.2108,-16.18393 c -0.17333,-13.30742 -0.0504,-16.01083 0.69172,-15.2101 0.65429,0.70598 0.99764,4.97247 1.24836,15.51263 0.38582,16.21832 0.70991,17.38387 5.58288,20.07829 2.6794,1.48151 9.96495,1.80498 10.72238,0.47605 0.27095,-0.47542 -1.03265,-2.4079 -3.01401,-4.46806 l -3.49148,-3.63032 -0.2474,-16.72141 c -0.26668,-18.02508 -0.66474,-20.2784 -4.27358,-24.19169 l -1.71448,-1.85913 2.54107,-0.42097 c 12.21718,-2.024 20.73119,-5.76223 25.95878,-11.39769 6.96178,-7.50494 9.09429,-15.03776 9.08934,-32.106884 -0.003,-11.269839 -0.11367,-12.279972 -1.8119,-16.577355 -0.99464,-2.516936 -2.97655,-6.272907 -4.40426,-8.346608 l -2.59584,-3.770375 -0.0884,-9.655065 c -0.0717,-7.83747 -0.32838,-10.13237 -1.36325,-12.190521 -1.2544,-2.49474 -1.33442,-2.528797 -4.98255,-2.12051 -3.83323,0.429001 -9.91323,3.020863 -15.81292,6.740933 l -3.39405,2.140142 -6.01116,-0.890774 c -7.25609,-1.075243 -27.147264,-0.582204 -32.259009,0.799596 -3.30862,0.894383 -3.700994,0.848728 -5.651795,-0.657558 -5.844303,-4.512587 -18.259231,-9.095963 -21.270812,-7.852813 -1.797962,0.742184 -2.725432,6.049807 -2.796326,16.002528 l -0.07213,10.125932 -2.855252,4.574868 c -4.124831,6.609053 -5.226756,11.989425 -4.746891,23.177714 0.42171,9.83243 1.555159,14.92605 4.800702,21.57399 5.327345,10.91217 15.794495,17.62605 31.842791,20.42476 l 2.611966,0.45551 -2.057068,3.15015 c -1.131387,1.73257 -2.259144,4.06297 -2.506119,5.17865 -0.539882,2.43885 -3.677663,3.7909 -8.921544,3.84423 -6.026497,0.0613 -8.272508,-1.25742 -13.247459,-7.77807 -5.563574,-7.29215 -7.928756,-8.97069 -12.640293,-8.97069 -3.278185,0 -3.549852,0.13669 -3.549852,1.78615 0,1.16208 0.85143,2.49035 2.436876,3.80164 3.655207,3.02317 5.731592,5.6683 7.389538,9.4136 2.453087,5.54154 4.658117,8.76566 7.408503,10.83248 3.68891,2.77209 6.431356,3.46499 13.719276,3.46626 l 6.398351,7.8e-4 v 8.73943 8.73943 l -3.458569,3.61485 c -4.642464,4.85225 -4.552574,5.86479 0.518787,5.8438 5.061983,-0.021 9.372952,-2.08664 11.223472,-5.37793 1.261082,-2.24292 1.396396,-3.77859 1.408308,-15.98259 0.0076,-7.82819 0.306927,-13.97401 0.712271,-14.62636 0.478403,-0.76992 0.638827,4.20246 0.508196,15.75146 l -0.190899,16.87658 -1.985558,2.81452 c -1.631676,2.31291 -1.832322,3.01474 -1.125798,3.93787 1.17224,1.53162 3.16562,1.41022 6.620176,-0.40319 z"
       id="path248" />
    <path
       style="fill:#80e5ff;stroke-width:0.720302"
       d="M 32.971491,222.46806 C 28.700172,221.37226 21.147968,216.70561 17.507897,212.91281 13.09119,208.3108 9.8754142,203.13469 7.4989779,196.80245 L 5.5605637,191.63736 V 113.78554 35.933725 L 7.491345,30.793038 C 11.693741,19.604214 20.168547,10.127834 29.358845,6.3411938 34.651894,4.1603181 53.135361,3.5822862 118.55593,3.551735 c 62.97017,-0.029413 60.58094,-0.2027473 69.96293,5.0757691 7.12626,4.0093879 12.79685,10.4444519 16.4304,18.6454329 l 2.93758,6.630177 0.18773,77.632216 c 0.12436,51.43194 -0.0539,78.86328 -0.52827,81.27988 -2.10482,10.72329 -10.553,21.9514 -20.46923,27.20477 l -5.47535,2.9007 -72.9758,0.11729 c -42.212992,0.0679 -74.104974,-0.17239 -75.654429,-0.56991 z m 66.65561,-32.06684 c 5.677149,-3.30155 7.431839,-8.62023 7.706999,-23.36072 0.10257,-5.49542 0.18952,-4.95762 0.6298,3.89555 0.59357,11.9355 1.52961,14.7811 5.96251,18.12615 3.78346,2.85497 8.07975,3.18248 8.41218,0.64126 0.12335,-0.94287 -0.57702,-3.19692 -1.55635,-5.00901 -1.75826,-3.25336 -1.77934,-3.47667 -1.67878,-17.78752 l 0.10178,-14.49279 0.80519,14.35444 c 0.89264,15.91368 1.36114,17.54353 5.59401,19.46135 1.28974,0.58435 4.37824,1.06245 6.86334,1.06245 5.58012,0 5.77037,-0.80696 1.36556,-5.7919 l -3.15278,-3.56803 -0.54014,-17.27048 c -0.56592,-18.0953 -0.76018,-19.19066 -4.08978,-23.06171 l -1.77418,-2.0627 h 1.77001 c 3.61315,0 15.2309,-3.74886 19.94864,-6.43711 7.50123,-4.27433 12.51978,-11.17026 14.53458,-19.97179 0.40528,-1.77037 0.91821,-8.63107 1.13987,-15.246007 0.48542,-14.486027 -0.1822,-17.760117 -5.31982,-26.089536 l -3.45419,-5.600141 v -8.691744 c 0,-6.236968 -0.31424,-9.543399 -1.11267,-11.707205 -1.09012,-2.954331 -1.18239,-3.015457 -4.55109,-3.015457 -3.74418,0 -9.90191,2.364846 -16.35815,6.282258 -3.41161,2.070058 -4.31921,2.309315 -7.03007,1.853271 -4.92076,-0.827799 -26.893402,-0.715857 -32.949149,0.167875 l -5.500578,0.802721 -5.158049,-2.988771 c -2.83692,-1.643823 -7.291907,-3.692697 -9.899969,-4.55306 -10.177853,-3.357529 -10.974832,-2.40221 -11.395622,13.659704 l -0.295405,11.275924 -2.687357,4.508636 c -3.813321,6.397701 -4.743814,10.47021 -4.743814,20.76241 0,19.667462 6.312706,32.397172 19.468495,39.258692 5.243162,2.73461 14.509791,5.72933 17.728393,5.72933 1.696106,0 1.69665,0.002 0.441405,2.0627 -0.69123,1.13448 -1.916581,3.41282 -2.722994,5.06297 -1.645323,3.36679 -4.295529,4.76343 -9.171177,4.83311 -4.708944,0.0672 -7.394371,-1.68538 -13.905332,-9.07554 l -6.099625,-6.92334 -4.598846,-0.31754 c -4.474859,-0.30897 -4.598843,-0.26898 -4.598843,1.48313 0,1.19617 1.296266,3.17697 3.861331,5.90042 2.123732,2.25486 4.778668,6.05054 5.899855,8.43485 2.647799,5.63077 6.488237,10.20085 9.952657,11.84356 1.700488,0.80632 5.632716,1.51723 10.202779,1.8446 l 7.435922,0.53265 v 8.00185 8.00184 l -3.45857,3.69397 c -4.812417,5.13994 -4.653648,6.37559 0.819186,6.37559 4.819295,0 9.254418,-1.89216 10.939951,-4.66729 0.659245,-1.08542 1.181135,-4.44324 1.431316,-9.209 l 0.393741,-7.50071 0.125041,8.86337 c 0.118557,8.40326 0.03527,8.991 -1.604243,11.32185 -1.716231,2.43992 -2.153855,4.23171 -1.268139,5.19215 0.893385,0.96876 4.775772,0.48406 7.141171,-0.89153 z"
       id="path324" />
  </g>
</svg>
